<svg width="605" height="605" viewBox="0 0 605 605" fill="none" xmlns="http://www.w3.org/2000/svg">
<path d="M57.8478 443.75L302.5 20L547.152 443.75H57.8478Z" stroke="black" stroke-width="20"/>
<path d="M166.722 493.4L165.622 497.9H177.622L176.522 493.4C175.722 490.267 174.922 486.867 174.122 483.2C173.322 479.533 172.522 476.067 171.722 472.8H171.322C170.655 476.067 169.922 479.533 169.122 483.2C168.322 486.867 167.522 490.267 166.722 493.4ZM141.722 525L161.522 460H182.322L202.122 525H183.922L180.722 511.2H162.522L159.322 525H141.722Z" fill="black"/>
<path d="M205.54 526V461H223.94L233.74 487.6C234.34 489.4 234.907 491.267 235.44 493.2C235.973 495.133 236.54 497.067 237.14 499H237.54C238.14 497.067 238.707 495.133 239.24 493.2C239.773 491.267 240.34 489.4 240.94 487.6L250.34 461H268.74V526H253.14V506.8C253.14 504.6 253.273 502.133 253.54 499.4C253.807 496.6 254.107 493.8 254.44 491C254.773 488.2 255.073 485.733 255.34 483.6H254.94L249.54 499.2L241.54 520.7H232.34L224.34 499.2L219.14 483.6H218.74C219.006 485.733 219.306 488.2 219.64 491C219.973 493.8 220.273 496.6 220.54 499.4C220.807 502.133 220.94 504.6 220.94 506.8V526H205.54Z" fill="black"/>
<path d="M105.634 493.4L104.534 497.9H116.534L115.434 493.4C114.634 490.267 113.834 486.867 113.034 483.2C112.234 479.533 111.434 476.067 110.634 472.8H110.234C109.567 476.067 108.834 479.533 108.034 483.2C107.234 486.867 106.434 490.267 105.634 493.4ZM80.6341 525L100.434 460H121.234L141.034 525H122.834L119.634 511.2H101.434L98.2341 525H80.6341Z" fill="black"/>
<path d="M55.2234 527.2C49.9568 527.2 45.5234 526.2 41.9234 524.2C38.3901 522.133 35.4234 519.033 33.0234 514.9L44.6234 506.2C45.7568 508.267 47.0568 509.833 48.5234 510.9C49.9901 511.9 51.4234 512.4 52.8234 512.4C55.1568 512.4 56.9234 511.7 58.1234 510.3C59.3901 508.833 60.0234 506.067 60.0234 502V461H77.2234V503.4C77.2234 507.733 76.4234 511.7 74.8234 515.3C73.2901 518.9 70.8901 521.8 67.6234 524C64.3568 526.133 60.2234 527.2 55.2234 527.2Z" fill="black"/>
<path d="M306.797 527V476.4H289.597V462H341.197V476.4H323.997V527H306.797Z" fill="black"/>
<path d="M532.861 527V476.4H515.661V462H567.261V476.4H550.061V527H532.861Z" fill="black"/>
<path d="M425.317 495.4L424.217 499.9H436.217L435.117 495.4C434.317 492.267 433.517 488.867 432.717 485.2C431.917 481.533 431.117 478.067 430.317 474.8H429.917C429.25 478.067 428.517 481.533 427.717 485.2C426.917 488.867 426.117 492.267 425.317 495.4ZM400.317 527L420.117 462H440.917L460.717 527H442.517L439.317 513.2H421.117L417.917 527H400.317Z" fill="black"/>
<path d="M371.142 528.2C365.142 528.2 359.875 526.867 355.342 524.2C350.809 521.467 347.275 517.567 344.742 512.5C342.209 507.433 340.942 501.333 340.942 494.2C340.942 487.067 342.209 481.033 344.742 476.1C347.275 471.1 350.809 467.3 355.342 464.7C359.875 462.1 365.142 460.8 371.142 460.8C377.142 460.8 382.409 462.1 386.942 464.7C391.475 467.3 395.009 471.1 397.542 476.1C400.075 481.033 401.342 487.067 401.342 494.2C401.342 501.333 400.075 507.433 397.542 512.5C395.009 517.567 391.475 521.467 386.942 524.2C382.409 526.867 377.142 528.2 371.142 528.2ZM371.142 513.4C375.075 513.4 378.142 511.667 380.342 508.2C382.609 504.733 383.742 500.067 383.742 494.2C383.742 488.267 382.609 483.7 380.342 480.5C378.142 477.233 375.075 475.6 371.142 475.6C367.275 475.6 364.209 477.233 361.942 480.5C359.675 483.7 358.542 488.267 358.542 494.2C358.542 500.067 359.675 504.733 361.942 508.2C364.209 511.667 367.275 513.4 371.142 513.4Z" fill="black"/>
<path d="M486.352 528.2C482.285 528.2 478.052 527.433 473.652 525.9C469.252 524.367 465.285 522.033 461.752 518.9L471.552 507.1C473.885 508.967 476.385 510.5 479.052 511.7C481.785 512.833 484.352 513.4 486.752 513.4C489.352 513.4 491.218 513 492.352 512.2C493.552 511.4 494.152 510.267 494.152 508.8C494.152 507.267 493.352 506.1 491.752 505.3C490.218 504.5 488.085 503.567 485.352 502.5L477.252 499.1C473.785 497.7 470.718 495.5 468.052 492.5C465.452 489.5 464.152 485.667 464.152 481C464.152 477.267 465.185 473.9 467.252 470.9C469.318 467.833 472.152 465.4 475.752 463.6C479.418 461.733 483.618 460.8 488.352 460.8C492.085 460.8 495.852 461.533 499.652 463C503.518 464.4 506.952 466.567 509.952 469.5L501.352 480.3C499.152 478.767 497.018 477.6 494.952 476.8C492.952 476 490.752 475.6 488.352 475.6C486.285 475.6 484.618 475.967 483.352 476.7C482.152 477.433 481.552 478.533 481.552 480C481.552 481.533 482.418 482.733 484.152 483.6C485.885 484.4 488.218 485.367 491.152 486.5L499.052 489.6C503.118 491.2 506.252 493.433 508.452 496.3C510.652 499.167 511.752 502.867 511.752 507.4C511.752 511.067 510.752 514.5 508.752 517.7C506.818 520.833 503.952 523.367 500.152 525.3C496.352 527.233 491.752 528.2 486.352 528.2Z" fill="black"/>
<path d="M215 364.567C222.141 364.567 227.93 358.836 227.93 351.767C227.93 344.697 222.141 338.967 215 338.967C207.859 338.967 202.07 344.697 202.07 351.767C202.07 358.836 207.859 364.567 215 364.567Z" fill="#61DAFB"/>
<path d="M264.11 330.657C261.615 329.759 259.006 328.861 256.284 328.075C256.965 325.38 257.532 322.685 257.986 320.103C260.367 305.281 257.759 294.839 250.5 290.797C248.345 289.561 245.963 289 243.241 289C235.302 289 225.208 294.839 215 304.608C204.792 294.839 194.698 289 186.759 289C184.037 289 181.655 289.561 179.5 290.797C172.241 294.951 169.633 305.394 172.014 320.103C172.468 322.685 173.035 325.38 173.716 328.075C170.994 328.861 168.385 329.647 165.89 330.657C151.712 336.047 144 343.458 144 351.767C144 360.076 151.826 367.487 165.89 372.876C168.385 373.775 170.994 374.673 173.716 375.459C173.035 378.154 172.468 380.849 172.014 383.431C169.633 398.253 172.241 408.695 179.5 412.737C181.655 413.972 184.037 414.534 186.759 414.534C194.811 414.534 204.906 408.695 215 398.926C225.208 408.695 235.302 414.534 243.241 414.534C245.963 414.534 248.345 413.972 250.5 412.737C257.759 408.583 260.367 398.14 257.986 383.431C257.532 380.849 256.965 378.154 256.284 375.459C259.006 374.673 261.615 373.887 264.11 372.876C278.288 367.487 286 360.076 286 351.767C286 343.458 278.288 336.047 264.11 330.657V330.657ZM247.324 296.411C251.974 299.106 253.562 307.415 251.634 319.204C251.294 321.562 250.727 324.033 250.046 326.615C244.149 325.268 237.911 324.37 231.332 323.808C227.476 318.418 223.506 313.59 219.537 309.211C227.93 301.014 236.436 295.4 243.355 295.4C244.829 295.4 246.19 295.737 247.324 296.411V296.411ZM234.621 362.995C232.58 366.588 230.198 370.182 227.703 373.775C223.506 374.112 219.31 374.224 215 374.224C210.577 374.224 206.38 374.112 202.297 373.775C199.802 370.182 197.534 366.588 195.492 362.995C193.337 359.29 191.296 355.472 189.481 351.767C191.296 348.062 193.337 344.244 195.492 340.539C197.534 336.945 199.915 333.352 202.411 329.759C206.607 329.422 210.804 329.31 215.113 329.31C219.537 329.31 223.733 329.422 227.816 329.759C230.312 333.352 232.58 336.945 234.621 340.539C236.776 344.244 238.818 348.062 240.633 351.767C238.704 355.472 236.776 359.178 234.621 362.995ZM244.035 359.29C245.736 363.22 247.097 367.038 248.345 370.855C244.489 371.754 240.406 372.427 236.096 372.989C237.457 370.855 238.931 368.61 240.179 366.252C241.54 363.894 242.788 361.536 244.035 359.29ZM215 389.719C212.278 386.8 209.669 383.656 207.174 380.399C209.783 380.512 212.391 380.624 215 380.624C217.609 380.624 220.217 380.512 222.826 380.399C220.331 383.656 217.722 386.8 215 389.719ZM193.904 372.876C189.594 372.315 185.511 371.641 181.655 370.743C182.903 367.038 184.264 363.108 185.965 359.178C187.212 361.423 188.46 363.781 189.821 366.027C191.182 368.497 192.543 370.631 193.904 372.876V372.876ZM185.965 344.244C184.264 340.314 182.903 336.496 181.655 332.679C185.511 331.78 189.594 331.107 193.904 330.545C192.543 332.679 191.069 334.924 189.821 337.282C188.46 339.64 187.212 341.998 185.965 344.244V344.244ZM215 313.815C217.722 316.734 220.331 319.878 222.826 323.134C220.217 323.022 217.609 322.91 215 322.91C212.391 322.91 209.783 323.022 207.174 323.134C209.669 319.878 212.278 316.734 215 313.815ZM240.179 337.395L236.096 330.657C240.406 331.219 244.489 331.893 248.345 332.791C247.097 336.496 245.736 340.426 244.035 344.356C242.788 341.998 241.54 339.64 240.179 337.395ZM178.366 319.204C176.438 307.415 178.026 299.106 182.676 296.411C183.81 295.737 185.171 295.4 186.645 295.4C193.45 295.4 201.957 300.902 210.463 309.211C206.494 313.478 202.524 318.418 198.668 323.808C192.089 324.37 185.851 325.38 179.954 326.615C179.273 324.033 178.819 321.562 178.366 319.204V319.204ZM150.351 351.767C150.351 346.49 156.816 340.875 168.158 336.721C170.427 335.823 172.922 335.037 175.417 334.363C177.232 339.977 179.5 345.928 182.222 351.879C179.5 357.83 177.118 363.669 175.417 369.283C159.765 364.792 150.351 358.055 150.351 351.767ZM182.676 407.123C178.026 404.428 176.438 396.119 178.366 384.329C178.706 381.971 179.273 379.501 179.954 376.919C185.851 378.266 192.089 379.164 198.668 379.726C202.524 385.115 206.494 389.944 210.463 394.323C202.07 402.519 193.564 408.134 186.645 408.134C185.171 408.134 183.81 407.797 182.676 407.123ZM251.634 384.329C253.562 396.119 251.974 404.428 247.324 407.123C246.19 407.797 244.829 408.134 243.355 408.134C236.55 408.134 228.043 402.632 219.537 394.323C223.506 390.056 227.476 385.115 231.332 379.726C237.911 379.164 244.149 378.154 250.046 376.919C250.727 379.501 251.181 381.971 251.634 384.329V384.329ZM261.842 366.813C259.573 367.711 257.078 368.497 254.583 369.171C252.768 363.557 250.5 357.606 247.778 351.655C250.5 345.704 252.882 339.865 254.583 334.251C270.235 338.742 279.649 345.479 279.649 351.767C279.649 357.044 273.07 362.659 261.842 366.813Z" fill="#61DAFB"/>
<path d="M376 284C338.494 284 308 314.494 308 352C308 389.506 338.494 420 376 420C387.9 420 399.056 416.919 408.725 411.606L359.425 342.756V381.644H352.2V328.412H359.425L413.081 408.95C431.675 396.837 444 375.906 444 352C444 314.494 413.506 284 376 284ZM399.481 373.887L391.512 361.881V328.412H399.481V373.887Z" fill="black"/>
<path d="M265.43 235.703L252.42 241.247L264.47 246.36L278.44 241.247L265.43 235.703ZM245.872 242.634L245.436 267.587L264.47 275.905V249.998L245.872 242.634V242.634ZM284.988 242.634L267.786 249.133V273.567L284.988 266.635V242.634ZM305.506 165L292.409 170.545L304.546 175.658L318.516 170.545L305.506 165V165ZM287.345 172.365V197.318L303.585 201.997L304.109 179.295L287.345 172.365V172.365ZM323.668 173.751L308.3 180.249V204.77L323.668 197.838V173.751V173.751ZM243.994 200.121L230.985 205.667L243.034 210.779L257.004 205.667L243.994 200.121V200.121ZM224.436 207.053L224 232.006L243.034 240.324V214.418L224.436 207.053ZM263.551 207.053L246.352 213.551V237.984L263.551 231.053V207.053ZM285.904 199.197L272.895 204.743L284.944 209.855L298.913 204.743L285.904 199.197ZM266.347 206.129L265.91 231.083L284.945 239.401V213.493L266.347 206.129V206.129ZM305.463 206.129L288.262 212.627V237.062L305.463 230.13V206.129V206.129ZM346.442 165L333.433 170.545L345.483 175.658L359.453 170.545L346.442 165ZM326.885 171.932L326.449 196.885L345.483 205.202V179.295L326.885 171.932V171.932ZM366 171.932L348.801 178.43V202.864L366 195.933V171.932V171.932Z" fill="#F7A80D"/>
</svg>
