<svg width="1500" height="1500" viewBox="0 0 1500 1500" fill="none" xmlns="http://www.w3.org/2000/svg">
<g clip-path="url(#clip0_139_12)">
<rect width="1500" height="1500" rx="750" fill="white"/>
<path d="M-39.9176 815.45C-38.8176 904.55 28.2824 975.5 136.082 975.5C243.882 975.5 315.382 906.2 315.382 798.95V516.25H215.282V798.95C215.282 850.65 185.582 885.3 136.082 885.3C86.5824 885.3 60.1824 848.45 60.1824 815.45H-39.9176ZM464.858 972.2C507.208 972.2 538.008 957.35 557.258 931.5V964.5H655.158V642.2H557.258V675.2C538.008 649.35 507.208 634.5 464.858 634.5C372.458 634.5 308.108 705.45 308.108 803.35C308.108 901.25 372.458 972.2 464.858 972.2ZM480.258 888.6C433.508 888.6 403.808 852.85 403.808 803.35C403.808 753.85 433.508 718.1 480.258 718.1C528.108 718.1 558.908 753.85 558.908 803.35C558.908 852.85 528.108 888.6 480.258 888.6ZM808.801 972.2C851.151 972.2 881.951 957.35 901.201 931.5V964.5H999.101V642.2H901.201V675.2C881.951 649.35 851.151 634.5 808.801 634.5C716.401 634.5 652.051 705.45 652.051 803.35C652.051 901.25 716.401 972.2 808.801 972.2ZM824.201 888.6C777.451 888.6 747.751 852.85 747.751 803.35C747.751 753.85 777.451 718.1 824.201 718.1C872.051 718.1 902.851 753.85 902.851 803.35C902.851 852.85 872.051 888.6 824.201 888.6ZM1012.49 964.5H1110.39V789.6C1112.04 743.95 1129.09 718.65 1160.99 718.65C1196.74 718.65 1215.44 745.6 1215.44 794.55V964.5H1313.34V789.6C1314.99 743.95 1332.04 718.65 1363.94 718.65C1399.69 718.65 1418.39 745.6 1418.39 794.55V964.5H1516.29V778.05C1516.29 688.4 1466.79 634.5 1392.54 634.5C1343.59 634.5 1309.49 649.9 1285.29 680.7C1263.84 651 1230.29 634.5 1189.59 634.5C1153.84 634.5 1129.64 647.15 1110.39 673V642.2H1012.49V964.5Z" fill="black"/>
</g>
<defs>
<clipPath id="clip0_139_12">
<rect width="1500" height="1500" rx="750" fill="white"/>
</clipPath>
</defs>
</svg>
